<svg width="48" height="49" viewBox="0 0 48 49" fill="none" xmlns="http://www.w3.org/2000/svg">
<g clip-path="url(#clip0_913_24050)">
<path d="M34.906 48.5C34.57 48.5 34.226 48.458 33.886 48.368L2.96003 40.086C0.840031 39.502 -0.42397 37.306 0.13203 35.186L4.03403 20.642C4.17803 20.108 4.72603 19.798 5.25803 19.934C5.79203 20.076 6.10803 20.626 5.96603 21.158L2.06603 35.698C1.78803 36.758 2.42403 37.862 3.48603 38.156L34.4 46.434C35.462 46.714 36.558 46.082 36.834 45.026L38.396 39.238C38.54 38.704 39.088 38.386 39.622 38.532C40.156 38.676 40.47 39.226 40.328 39.758L38.768 45.538C38.298 47.318 36.678 48.5 34.906 48.5Z" fill="#333333"/>
<path d="M44 36.5H12C9.794 36.5 8 34.706 8 32.5V8.5C8 6.294 9.794 4.5 12 4.5H44C46.206 4.5 48 6.294 48 8.5V32.5C48 34.706 46.206 36.5 44 36.5ZM12 6.5C10.898 6.5 10 7.398 10 8.5V32.5C10 33.602 10.898 34.5 12 34.5H44C45.102 34.5 46 33.602 46 32.5V8.5C46 7.398 45.102 6.5 44 6.5H12Z" fill="#333333"/>
<path d="M18 18.5C15.794 18.5 14 16.706 14 14.5C14 12.294 15.794 10.5 18 10.5C20.206 10.5 22 12.294 22 14.5C22 16.706 20.206 18.5 18 18.5ZM18 12.5C16.898 12.5 16 13.398 16 14.5C16 15.602 16.898 16.5 18 16.5C19.102 16.5 20 15.602 20 14.5C20 13.398 19.102 12.5 18 12.5Z" fill="#333333"/>
<path d="M9.14015 34.36C8.88415 34.36 8.62815 34.262 8.43215 34.068C8.04215 33.678 8.04215 33.044 8.43215 32.654L17.8781 23.208C19.0101 22.076 20.9881 22.076 22.1201 23.208L24.9321 26.02L32.7161 16.68C33.2821 16.002 34.1141 15.608 35.0001 15.6H35.0221C35.8981 15.6 36.7281 15.98 37.3001 16.646L47.7601 28.85C48.1201 29.268 48.0721 29.9 47.6521 30.26C47.2341 30.62 46.6041 30.574 46.2421 30.152L35.7822 17.948C35.5882 17.724 35.3201 17.6 35.0221 17.6C34.8141 17.582 34.4482 17.726 34.2542 17.96L25.7681 28.142C25.5881 28.358 25.3261 28.488 25.0441 28.5C24.7601 28.52 24.4901 28.408 24.2921 28.208L20.7061 24.622C20.3281 24.246 19.6701 24.246 19.2921 24.622L9.84615 34.068C9.65215 34.262 9.39615 34.36 9.14015 34.36Z" fill="#333333"/>
</g>
<defs>
<clipPath id="clip0_913_24050">
<rect width="48" height="48" fill="white" transform="translate(0 0.5)"/>
</clipPath>
</defs>
</svg>
