<svg width="16" height="16" viewBox="0 0 16 16" fill="none" xmlns="http://www.w3.org/2000/svg">
<path d="M6.56069 0C10.1782 0 13.1214 2.94312 13.1214 6.56069C13.1214 8.14497 12.5569 9.59984 11.6185 10.7349L16 15.1164L15.1164 16L10.7349 11.6185C9.59984 12.5569 8.14497 13.1214 6.56069 13.1214C2.94312 13.1214 0 10.1783 0 6.56069C0 2.94312 2.94309 0 6.56069 0ZM6.56069 11.8717C9.48919 11.8717 11.8717 9.48919 11.8717 6.56069C11.8717 3.63219 9.48919 1.24966 6.56069 1.24966C3.63219 1.24966 1.24966 3.63219 1.24966 6.56069C1.24966 9.48919 3.63219 11.8717 6.56069 11.8717Z" fill="#A8AAAD"/>
</svg>
