<svg width="1362" height="831" viewBox="0 0 1362 831" fill="none" xmlns="http://www.w3.org/2000/svg">
<path d="M0.00012207 831L1362 831L1362 0.00012207L0.000207149 2.03976e-05L0.00012207 831Z" fill="#EAEAEB"/>
<g opacity="0.3">
<mask id="mask0_2871_8438" style="mask-type:luminance" maskUnits="userSpaceOnUse" x="0" y="0" width="1362" height="831">
<path d="M1361.5 830.5L0.500122 830.5L0.500207 0.50002L1361.5 0.500122L1361.5 830.5Z" fill="white" stroke="white"/>
</mask>
<g mask="url(#mask0_2871_8438)">
<g style="mix-blend-mode:overlay">
<path d="M1353.28 -91.7419L-31.0535 242.32L-31.0535 442.425L1632.22 -60.4963L1632.22 -91.7419L1353.28 -91.7419Z" fill="url(#paint0_linear_2871_8438)"/>
<path d="M1491.66 977.256L1632.22 940.359L1632.22 806.07L1152.25 977.256L1491.66 977.256Z" fill="url(#paint1_linear_2871_8438)"/>
<path d="M769.803 -91.7417L-31.0525 149.248L-31.0525 242.32L1353.28 -91.7416L769.803 -91.7417Z" fill="url(#paint2_linear_2871_8438)"/>
<path d="M1632.22 -60.4964L-31.0535 442.425L-31.0535 672.778L1632.22 54.1815L1632.22 -60.4964Z" fill="url(#paint3_linear_2871_8438)"/>
<path d="M1632.22 54.1811L-31.0535 672.777L-31.0535 929.723L1632.22 477.326L1632.22 54.1811Z" fill="url(#paint4_linear_2871_8438)"/>
<path d="M1152.25 977.256L1632.22 806.07L1632.22 477.326L-31.0535 929.723L-31.0535 977.256L1152.25 977.256Z" fill="url(#paint5_linear_2871_8438)"/>
</g>
<g style="mix-blend-mode:overlay">
<path d="M-147.64 565.08L517.561 -44.542L453.274 -41.8828L-147.64 420.486L-147.64 565.08Z" fill="url(#paint6_linear_2871_8438)"/>
<path d="M1233.97 977.256L1352.19 880.86L1156.61 674.44L874.403 977.256L1233.97 977.256Z" fill="url(#paint7_linear_2871_8438)"/>
<path d="M-147.64 420.486L453.274 -41.8825L-17.9778 -23.2681L-147.64 95.0662L-147.64 420.486Z" fill="url(#paint8_linear_2871_8438)"/>
<path d="M-147.641 763.855L578.033 -47.2009L517.56 -44.5417L-147.641 565.08L-147.641 763.855Z" fill="url(#paint9_linear_2871_8438)"/>
<path d="M1626.77 -88.7507L578.034 -47.2008L-147.64 763.855L-147.64 977.256L358.479 977.256L962.662 469.349L743.108 237.334L1596.26 -63.1559L1626.77 -88.7507Z" fill="url(#paint10_linear_2871_8438)"/>
<path d="M874.404 977.256L1156.61 674.439L962.662 469.349L358.479 977.256L874.404 977.256Z" fill="url(#paint11_linear_2871_8438)"/>
</g>
<g style="mix-blend-mode:overlay">
<path d="M1632.22 289.188L1473.68 278.883L1140.81 630.895L1392.51 685.076L1632.22 684.079L1632.22 289.188Z" fill="url(#paint12_linear_2871_8438)"/>
</g>
</g>
<mask id="mask1_2871_8438" style="mask-type:luminance" maskUnits="userSpaceOnUse" x="0" y="0" width="1362" height="831">
<path d="M1361.5 830.5L0.500122 830.5L0.500207 0.50002L1361.5 0.500122L1361.5 830.5Z" fill="white" stroke="white"/>
</mask>
<g mask="url(#mask1_2871_8438)">
<g style="mix-blend-mode:overlay">
<path d="M9.26232 923.075L1393.05 588.68L1393.05 388.908L-270.22 891.829L-270.22 923.075L9.26232 923.075Z" fill="url(#paint13_linear_2871_8438)"/>
<path d="M-129.118 -145.923L-270.221 -109.359L-270.221 25.2627L209.748 -145.923L-129.118 -145.923Z" fill="url(#paint14_linear_2871_8438)"/>
<path d="M592.198 923.075L1393.05 682.085L1393.05 588.68L9.26222 923.075L592.198 923.075Z" fill="url(#paint15_linear_2871_8438)"/>
<path d="M-270.22 891.829L1393.05 388.908L1393.05 158.555L-270.22 777.151L-270.22 891.829Z" fill="url(#paint16_linear_2871_8438)"/>
<path d="M-270.22 777.151L1393.05 158.555L1393.05 -98.3902L-270.22 354.006L-270.22 777.151Z" fill="url(#paint17_linear_2871_8438)"/>
<path d="M209.749 -145.923L-270.22 25.2627L-270.22 354.006L1393.05 -98.39L1393.05 -145.923L209.749 -145.923Z" fill="url(#paint18_linear_2871_8438)"/>
</g>
<g style="mix-blend-mode:overlay">
<path d="M1509.64 266.252L844.44 875.874L908.727 873.215L1509.64 410.846L1509.64 266.252Z" fill="url(#paint19_linear_2871_8438)"/>
<path d="M128.028 -145.924L9.80611 -49.8603L205.389 156.56L487.596 -145.924L128.028 -145.924Z" fill="url(#paint20_linear_2871_8438)"/>
<path d="M1509.64 410.846L908.727 873.214L1379.98 854.268L1509.64 735.933L1509.64 410.846Z" fill="url(#paint21_linear_2871_8438)"/>
<path d="M1509.64 67.4772L783.968 878.201L844.44 875.874L1509.64 266.252L1509.64 67.4772Z" fill="url(#paint22_linear_2871_8438)"/>
<path d="M-264.772 920.083L783.968 878.201L1509.64 67.4771L1509.64 -145.924L1003.52 -145.924L399.339 361.983L618.893 593.666L-233.719 894.488L-264.772 920.083Z" fill="url(#paint23_linear_2871_8438)"/>
<path d="M487.597 -145.924L205.391 156.56L399.34 361.983L1003.52 -145.924L487.597 -145.924Z" fill="url(#paint24_linear_2871_8438)"/>
</g>
<g style="mix-blend-mode:overlay">
<path d="M-270.221 542.144L-111.684 552.449L221.189 200.437L-30.5086 146.256L-270.22 146.921L-270.221 542.144Z" fill="url(#paint25_linear_2871_8438)"/>
</g>
</g>
</g>
<defs>
<linearGradient id="paint0_linear_2871_8438" x1="2564.79" y1="-985.32" x2="-90.0261" y2="3365.9" gradientUnits="userSpaceOnUse">
<stop stop-color="white"/>
<stop offset="1"/>
</linearGradient>
<linearGradient id="paint1_linear_2871_8438" x1="872.471" y1="574.655" x2="2210.75" y2="2768.08" gradientUnits="userSpaceOnUse">
<stop stop-color="white"/>
<stop offset="1"/>
</linearGradient>
<linearGradient id="paint2_linear_2871_8438" x1="-21.2652" y1="-340.599" x2="774.637" y2="963.877" gradientUnits="userSpaceOnUse">
<stop stop-color="white"/>
<stop offset="1"/>
</linearGradient>
<linearGradient id="paint3_linear_2871_8438" x1="1514.27" y1="742.005" x2="676.354" y2="-631.326" gradientUnits="userSpaceOnUse">
<stop stop-color="white"/>
<stop offset="1"/>
</linearGradient>
<linearGradient id="paint4_linear_2871_8438" x1="4107.65" y1="-1442.95" x2="889.968" y2="3830.79" gradientUnits="userSpaceOnUse">
<stop stop-color="white"/>
<stop offset="1"/>
</linearGradient>
<linearGradient id="paint5_linear_2871_8438" x1="1765.82" y1="1316.21" x2="843.471" y2="-195.513" gradientUnits="userSpaceOnUse">
<stop stop-color="white"/>
<stop offset="1"/>
</linearGradient>
<linearGradient id="paint6_linear_2871_8438" x1="445.226" y1="-404.96" x2="-250.831" y2="3852.68" gradientUnits="userSpaceOnUse">
<stop stop-color="white"/>
<stop offset="1"/>
</linearGradient>
<linearGradient id="paint7_linear_2871_8438" x1="1.69174" y1="660.21" x2="3029.2" y2="1989.79" gradientUnits="userSpaceOnUse">
<stop stop-color="white"/>
<stop offset="1"/>
</linearGradient>
<linearGradient id="paint8_linear_2871_8438" x1="-1430.14" y1="-69.7572" x2="370.386" y2="720.971" gradientUnits="userSpaceOnUse">
<stop stop-color="white"/>
<stop offset="1"/>
</linearGradient>
<linearGradient id="paint9_linear_2871_8438" x1="765.431" y1="448.17" x2="-1130.13" y2="-384.295" gradientUnits="userSpaceOnUse">
<stop stop-color="white"/>
<stop offset="1"/>
</linearGradient>
<linearGradient id="paint10_linear_2871_8438" x1="1443.72" y1="-1265.84" x2="600.207" y2="3893.73" gradientUnits="userSpaceOnUse">
<stop stop-color="white"/>
<stop offset="1"/>
</linearGradient>
<linearGradient id="paint11_linear_2871_8438" x1="1460.33" y1="853.938" x2="-626.248" y2="-62.417" gradientUnits="userSpaceOnUse">
<stop stop-color="white"/>
<stop offset="1"/>
</linearGradient>
<linearGradient id="paint12_linear_2871_8438" x1="1762.78" y1="1318.41" x2="1520.97" y2="-160.687" gradientUnits="userSpaceOnUse">
<stop stop-color="white"/>
<stop offset="1"/>
</linearGradient>
<linearGradient id="paint13_linear_2871_8438" x1="-1203.4" y1="1816.27" x2="1451.43" y2="-2534.95" gradientUnits="userSpaceOnUse">
<stop stop-color="white"/>
<stop offset="1"/>
</linearGradient>
<linearGradient id="paint14_linear_2871_8438" x1="488.926" y1="256.297" x2="-849.353" y2="-1937.13" gradientUnits="userSpaceOnUse">
<stop stop-color="white"/>
<stop offset="1"/>
</linearGradient>
<linearGradient id="paint15_linear_2871_8438" x1="1382.28" y1="1171.79" x2="586.376" y2="-132.69" gradientUnits="userSpaceOnUse">
<stop stop-color="white"/>
<stop offset="1"/>
</linearGradient>
<linearGradient id="paint16_linear_2871_8438" x1="-152.869" y1="88.9465" x2="685.044" y2="1462.28" gradientUnits="userSpaceOnUse">
<stop stop-color="white"/>
<stop offset="1"/>
</linearGradient>
<linearGradient id="paint17_linear_2871_8438" x1="-2746.25" y1="2273.9" x2="471.431" y2="-2999.84" gradientUnits="userSpaceOnUse">
<stop stop-color="white"/>
<stop offset="1"/>
</linearGradient>
<linearGradient id="paint18_linear_2871_8438" x1="-404.425" y1="-485.262" x2="517.927" y2="1026.46" gradientUnits="userSpaceOnUse">
<stop stop-color="white"/>
<stop offset="1"/>
</linearGradient>
<linearGradient id="paint19_linear_2871_8438" x1="914.844" y1="1235.67" x2="1610.9" y2="-3021.96" gradientUnits="userSpaceOnUse">
<stop stop-color="white"/>
<stop offset="1"/>
</linearGradient>
<linearGradient id="paint20_linear_2871_8438" x1="1357.85" y1="170.417" x2="-1669.18" y2="-1158.95" gradientUnits="userSpaceOnUse">
<stop stop-color="white"/>
<stop offset="1"/>
</linearGradient>
<linearGradient id="paint21_linear_2871_8438" x1="2790.35" y1="900.149" x2="989.826" y2="109.422" gradientUnits="userSpaceOnUse">
<stop stop-color="white"/>
<stop offset="1"/>
</linearGradient>
<linearGradient id="paint22_linear_2871_8438" x1="594.78" y1="382.222" x2="2489.87" y2="1214.48" gradientUnits="userSpaceOnUse">
<stop stop-color="white"/>
<stop offset="1"/>
</linearGradient>
<linearGradient id="paint23_linear_2871_8438" x1="-83.6454" y1="2096.55" x2="759.919" y2="-3063.35" gradientUnits="userSpaceOnUse">
<stop stop-color="white"/>
<stop offset="1"/>
</linearGradient>
<linearGradient id="paint24_linear_2871_8438" x1="-100.12" y1="-23.546" x2="1986.46" y2="892.809" gradientUnits="userSpaceOnUse">
<stop stop-color="white"/>
<stop offset="1"/>
</linearGradient>
<linearGradient id="paint25_linear_2871_8438" x1="-402.916" y1="-486.803" x2="-161.107" y2="992.292" gradientUnits="userSpaceOnUse">
<stop stop-color="white"/>
<stop offset="1"/>
</linearGradient>
</defs>
</svg>
