<svg width="24" height="24" viewBox="0 0 24 24" fill="none" xmlns="http://www.w3.org/2000/svg">
<path d="M20.4062 7.28754V1H4.59375V7.28754L1 10.2823V21.3047C1 22.7909 2.20912 24 3.69531 24H21.3047C22.7909 24 24 22.7909 24 21.3047V10.2823L20.4062 7.28754ZM20.4062 9.62653L21.7051 10.7089L20.4062 11.8096V9.62653ZM6.39062 2.79688H18.6094V13.3324L12.5 18.5098L6.39062 13.3324V2.79688ZM4.59375 9.62653V11.8096L3.29492 10.7089L4.59375 9.62653ZM22.2031 21.3047C22.2031 21.8001 21.8001 22.2031 21.3047 22.2031H3.69531C3.19991 22.2031 2.79688 21.8001 2.79688 21.3047V12.6422L12.5 20.8652L22.2031 12.6422V21.3047ZM15.1953 4.41406H9.80581V6.21094H15.1953V4.41406ZM15.1953 11.6016H9.80581V13.3984H15.1953V11.6016ZM16.9922 8.00781H8.00894V9.80469H16.9922V8.00781Z" fill="#333333"/>
</svg>
