<svg width="18" height="19" viewBox="0 0 18 19" fill="none" xmlns="http://www.w3.org/2000/svg">
<g clip-path="url(#clip0_2709_2814)">
<path d="M9 0.92041L0 8.73621L0.921305 9.79708L1.76389 9.06534V15.9719C1.76389 17.134 2.70935 18.0795 3.87151 18.0795H7.80571V11.1946H10.2646V18.0795H14.1285C15.2906 18.0795 16.2361 17.134 16.2361 15.9719V9.06537L17.0787 9.79712L18 8.73624L9 0.92041ZM14.8311 15.9719C14.8311 16.3592 14.5159 16.6744 14.1285 16.6744H11.6697V9.78956H6.40062V16.6744H3.87148C3.48409 16.6744 3.16895 16.3593 3.16895 15.9719V7.84517L9 2.78137L14.8311 7.84517V15.9719Z" fill="#7E8083"/>
</g>
<defs>
<clipPath id="clip0_2709_2814">
<rect width="18" height="18" fill="white" transform="translate(0 0.5)"/>
</clipPath>
</defs>
</svg>
