<svg width="101" height="102" viewBox="0 0 101 102" fill="none" xmlns="http://www.w3.org/2000/svg">
<g clip-path="url(#clip0_981_26027)">
<path fill-rule="evenodd" clip-rule="evenodd" d="M96.4184 75.5501H4.65661C2.36465 75.5501 0.5 73.6498 0.5 71.3142V23.9407C0.5 21.6046 2.36465 19.7041 4.65661 19.7041H96.4184C98.7104 19.7041 100.575 21.6046 100.575 23.9407V71.3142C100.575 73.6498 98.7104 75.5501 96.4184 75.5501ZM4.65661 22.8917C4.08893 22.8917 3.62745 23.3623 3.62745 23.9407V71.3142C3.62745 71.8921 4.08893 72.3627 4.65661 72.3627H96.4184C96.9859 72.3627 97.4476 71.8924 97.4476 71.3142V23.9407C97.4476 23.3623 96.9861 22.8917 96.4184 22.8917H4.65661Z" fill="#57595B"/>
<path fill-rule="evenodd" clip-rule="evenodd" d="M93.1475 69.5742H7.92712C7.06348 69.5742 6.36328 68.8605 6.36328 67.9805V27.2746C6.36328 26.3943 7.06348 25.6807 7.92712 25.6807L20.7566 25.6809C21.62 25.6809 22.3202 26.3943 22.3202 27.2746C22.3202 28.1548 21.62 28.8683 20.7566 28.8683H9.49073V66.3866H91.5839V28.8683H80.318C79.4543 28.8683 78.7541 28.1546 78.7541 27.2746C78.7541 26.3943 79.4543 25.6807 80.318 25.6807L93.1475 25.6809C94.0109 25.6809 94.7111 26.3943 94.7111 27.2746V67.9805C94.7111 68.8605 94.0109 69.5742 93.1475 69.5742Z" fill="#57595B"/>
<path fill-rule="evenodd" clip-rule="evenodd" d="M58.6309 94.8453H42.4447C41.5811 94.8453 40.8809 94.1317 40.8809 93.2517V73.9565C40.8809 73.0765 41.5811 72.3628 42.4447 72.3628H58.6309C59.4945 72.3628 60.1947 73.0765 60.1947 73.9567V93.2517C60.1947 94.1317 59.4945 94.8453 58.6309 94.8453ZM44.0085 91.658H57.0675V75.5504H44.0085V91.658Z" fill="#57595B"/>
<path fill-rule="evenodd" clip-rule="evenodd" d="M67.0622 94.8453H34.0148C33.1511 94.8453 32.4512 94.1316 32.4512 93.2516C32.4512 92.3714 33.1511 91.6577 34.0148 91.6577L67.0622 91.6579C67.9256 91.6579 68.6258 92.3714 68.6258 93.2516C68.6258 94.1319 67.9256 94.8453 67.0622 94.8453Z" fill="#57595B"/>
<path fill-rule="evenodd" clip-rule="evenodd" d="M78.7254 59.3134H22.3499C20.5799 59.3134 19.1934 57.5522 19.1934 55.3044V12.009C19.1934 9.76097 20.5799 8 22.3499 8H78.7254C80.4958 8.00024 81.8822 9.76121 81.8822 12.0093V55.3046C81.8822 57.5524 80.4956 59.3134 78.7254 59.3134ZM22.5253 56.1258H78.5502C78.6333 55.9999 78.7549 55.715 78.7549 55.3044V12.009C78.7549 11.5987 78.6333 11.3135 78.5502 11.1876H22.5253C22.4425 11.3135 22.3208 11.5984 22.3208 12.009V55.3046C22.3206 55.715 22.4422 56.0002 22.5253 56.1258Z" fill="#57595B"/>
<path fill-rule="evenodd" clip-rule="evenodd" d="M80.3188 22.8917H20.7572C19.8936 22.8917 19.1934 22.1783 19.1934 21.298C19.1934 20.4178 19.8936 19.7041 20.7572 19.7041H80.3188C81.1822 19.7041 81.8824 20.4178 81.8824 21.298C81.8824 22.1783 81.1822 22.8917 80.3188 22.8917Z" fill="#57595B"/>
<path fill-rule="evenodd" clip-rule="evenodd" d="M33.8694 17.0396H29.1359C28.2722 17.0396 27.5723 16.3262 27.5723 15.446C27.5723 14.5657 28.2722 13.8523 29.1359 13.8523H33.8694C34.733 13.8523 35.4332 14.566 35.4332 15.446C35.4332 16.3262 34.7333 17.0396 33.8694 17.0396Z" fill="#57595B"/>
<path fill-rule="evenodd" clip-rule="evenodd" d="M44.895 17.0396H40.1615C39.2978 17.0396 38.5977 16.3262 38.5977 15.446C38.5977 14.5657 39.2978 13.8523 40.1615 13.8523H44.895C45.7587 13.8523 46.4586 14.566 46.4586 15.446C46.4586 16.3262 45.7587 17.0396 44.895 17.0396Z" fill="#57595B"/>
<path fill-rule="evenodd" clip-rule="evenodd" d="M71.9394 17.0396H55.8744C55.0107 17.0396 54.3105 16.3262 54.3105 15.446C54.3105 14.5657 55.0107 13.8523 55.8744 13.8523H71.9394C72.803 13.8523 73.5032 14.566 73.5032 15.446C73.5032 16.3262 72.803 17.0396 71.9394 17.0396Z" fill="#57595B"/>
<path fill-rule="evenodd" clip-rule="evenodd" d="M54.9016 47.6769H46.1749C44.5804 47.6769 43.2832 46.3547 43.2832 44.7295V34.2879C43.2832 32.6627 44.5804 31.3408 46.1749 31.3408H54.9016C56.4959 31.3408 57.7931 32.6627 57.7931 34.2879V44.7295C57.7931 46.3547 56.4959 47.6769 54.9016 47.6769ZM46.4106 44.4893H54.6659V34.5284H46.4106V44.4893Z" fill="#FFCA00"/>
<path fill-rule="evenodd" clip-rule="evenodd" d="M39.1703 47.6785C38.3067 47.6785 37.6065 46.9648 37.6065 46.0846V40.46H33.349C32.4854 40.46 31.7852 39.7463 31.7852 38.8661V32.933C31.7852 32.053 32.4854 31.3394 33.349 31.3394C34.2124 31.3394 34.9126 32.0528 34.9126 32.933V37.2724H37.6065V33.4276C37.6065 32.5476 38.3067 31.834 39.1703 31.834C40.034 31.834 40.7339 32.5476 40.7339 33.4276V46.0846C40.7339 46.9648 40.0337 47.6785 39.1703 47.6785Z" fill="#FFCA00"/>
<path fill-rule="evenodd" clip-rule="evenodd" d="M67.7267 47.6785C66.8631 47.6785 66.1629 46.9648 66.1629 46.0846V40.46H61.9054C61.042 40.46 60.3418 39.7463 60.3418 38.8661V32.933C60.3418 32.053 61.042 31.3394 61.9054 31.3394C62.769 31.3394 63.4692 32.0528 63.4692 32.933V37.2724H66.1629V33.4276C66.1629 32.5476 66.8631 31.834 67.7267 31.834C68.5904 31.834 69.2903 32.5476 69.2903 33.4276V46.0846C69.2903 46.9648 68.5899 47.6785 67.7267 47.6785Z" fill="#FFCA00"/>
</g>
<defs>
<clipPath id="clip0_981_26027">
<rect width="100.075" height="102" fill="white" transform="translate(0.5)"/>
</clipPath>
</defs>
</svg>
