<svg width="102" height="102" viewBox="0 0 102 102" fill="none" xmlns="http://www.w3.org/2000/svg">
<path fill-rule="evenodd" clip-rule="evenodd" d="M86.9616 10.9271H71.3377C69.6986 10.9271 68.3652 9.59389 68.3652 7.95509V4.97315C68.3652 3.33414 69.6986 2.00073 71.3377 2.00073H86.9616C88.6008 2.00073 89.9342 3.33414 89.9342 4.97315V7.95532C89.934 9.59411 88.6008 10.9271 86.9616 10.9271ZM71.3651 7.92719H86.9341V5.00083H71.3651V7.92719Z" fill="#57595B"/>
<path fill-rule="evenodd" clip-rule="evenodd" d="M30.6608 10.9271H15.0369C13.3979 10.9271 12.0645 9.59389 12.0645 7.95509V4.97315C12.0645 3.33414 13.3979 2.00073 15.0369 2.00073H30.6608C32.3 2.00073 33.6332 3.33414 33.6332 4.97315V7.95532C33.6332 9.59411 32.2998 10.9271 30.6608 10.9271ZM15.0646 7.92719H30.6333V5.00083H15.0646V7.92719Z" fill="#57595B"/>
<path fill-rule="evenodd" clip-rule="evenodd" d="M83.4185 21.2979H74.8791C74.0506 21.2979 73.3789 20.6262 73.3789 19.7979V9.4279C73.3789 8.59942 74.0506 7.92773 74.8791 7.92773H83.4185C84.2468 7.92773 84.9185 8.59942 84.9185 9.4279V19.7979C84.9185 20.6262 84.2468 21.2979 83.4185 21.2979ZM76.379 18.2978H81.9186V10.9278H76.379V18.2978Z" fill="#57595B"/>
<path fill-rule="evenodd" clip-rule="evenodd" d="M27.1175 21.2979H18.5781C17.7496 21.2979 17.0781 20.6262 17.0781 19.7979V9.4279C17.0781 8.59942 17.7496 7.92773 18.5781 7.92773H27.1175C27.9458 7.92773 28.6175 8.59942 28.6175 9.4279V19.7979C28.6175 20.6262 27.946 21.2979 27.1175 21.2979ZM20.078 18.2978H25.6176V10.9278H20.078V18.2978Z" fill="#57595B"/>
<path fill-rule="evenodd" clip-rule="evenodd" d="M27.1175 83.7533H18.5781C17.7496 83.7533 17.0781 83.0816 17.0781 82.2531V51.7084C17.0781 50.8802 17.7496 50.2085 18.5781 50.2085H27.1175C27.9458 50.2085 28.6175 50.8802 28.6175 51.7084V82.2531C28.6175 83.0816 27.946 83.7533 27.1175 83.7533ZM20.078 80.7532H25.6176V53.2086H20.078V80.7532Z" fill="#57595B"/>
<path fill-rule="evenodd" clip-rule="evenodd" d="M30.6608 89.6802H15.0369C13.3976 89.6802 12.0645 88.3468 12.0645 86.7076V83.7254C12.0645 82.0868 13.3976 80.7534 15.0369 80.7534H30.6608C32.2998 80.7534 33.6332 82.0866 33.6332 83.7254V86.7073C33.6332 88.3468 32.2998 89.6802 30.6608 89.6802ZM15.0643 86.6801H30.6331V83.7537L15.0643 83.7535V86.6801Z" fill="#57595B"/>
<path fill-rule="evenodd" clip-rule="evenodd" d="M83.4203 83.7533H74.8808C74.0525 83.7533 73.3809 83.0816 73.3809 82.2531V51.7084C73.3809 50.8802 74.0523 50.2085 74.8808 50.2085H83.4203C84.2487 50.2085 84.9204 50.8802 84.9204 51.7084V82.2531C84.9204 83.0816 84.2487 83.7533 83.4203 83.7533ZM76.381 80.7532H81.9203V53.2086H76.381V80.7532Z" fill="#57595B"/>
<path fill-rule="evenodd" clip-rule="evenodd" d="M86.9616 89.6802H71.3377C69.6986 89.6802 68.3652 88.3468 68.3652 86.7076V83.7254C68.3652 82.0868 69.6986 80.7534 71.3377 80.7534H86.9616C88.6008 80.7534 89.9342 82.0866 89.9342 83.7254V86.7073C89.934 88.3468 88.6008 89.6802 86.9616 89.6802ZM71.3651 86.6801H86.9341V83.7537L71.3651 83.7535V86.6801Z" fill="#57595B"/>
<path fill-rule="evenodd" clip-rule="evenodd" d="M92.9398 98.0001H9.05876C8.23028 98.0001 7.55859 97.3286 7.55859 96.5002C7.55859 95.6717 8.23028 95 9.05876 95L92.9396 95.0002C93.7681 95.0002 94.4397 95.6717 94.4397 96.5002C94.4397 97.3286 93.7683 98.0001 92.9398 98.0001Z" fill="#57595B"/>
<path fill-rule="evenodd" clip-rule="evenodd" d="M88.1529 53.2086H13.8446C11.1324 53.2086 8.92578 51.0019 8.92578 48.29V23.2164C8.92578 20.504 11.1324 18.2974 13.8446 18.2974L88.1531 18.2976C90.8653 18.2976 93.0719 20.5042 93.0719 23.2164V48.29C93.0719 51.0022 90.8651 53.2086 88.1529 53.2086ZM13.8446 21.2975C12.7867 21.2975 11.9259 22.1583 11.9259 23.2164V48.29C11.9259 49.3479 12.7867 50.2085 13.8446 50.2085H88.1531C89.2112 50.2085 90.0718 49.3479 90.0718 48.29V23.2164C90.0718 22.1583 89.211 21.2975 88.1531 21.2975H13.8446Z" fill="#FCDC54"/>
<path fill-rule="evenodd" clip-rule="evenodd" d="M10.4246 46.4894C10.1602 46.4894 9.89224 46.4192 9.64908 46.2721C8.94041 45.843 8.71386 44.9206 9.14282 44.2121L24.3965 19.0208C24.8256 18.3121 25.748 18.0853 26.4567 18.5145C27.1654 18.9437 27.3919 19.8658 26.9629 20.5745L11.7093 45.7661C11.4272 46.2318 10.9322 46.4894 10.4246 46.4894Z" fill="#FCDC54"/>
<path fill-rule="evenodd" clip-rule="evenodd" d="M20.3503 53.2086C20.0859 53.2086 19.8179 53.1388 19.5747 52.9918C18.8663 52.5626 18.6395 51.6402 19.0687 50.9318L38.3912 19.0209C38.8204 18.3124 39.7423 18.0854 40.4512 18.5149C41.1599 18.944 41.3864 19.8662 40.9573 20.5749L21.635 52.4855C21.3528 52.9513 20.8577 53.2086 20.3503 53.2086Z" fill="#FCDC54"/>
<path fill-rule="evenodd" clip-rule="evenodd" d="M34.3425 53.2086C34.0779 53.2086 33.8099 53.1388 33.567 52.9918C32.8583 52.5626 32.6318 51.6402 33.0609 50.9318L52.3834 19.0211C52.8124 18.3127 53.7352 18.0857 54.4435 18.5151C55.1519 18.9443 55.3787 19.8664 54.9497 20.5751L35.627 52.4855C35.3451 52.9513 34.8501 53.2086 34.3425 53.2086Z" fill="#FCDC54"/>
<path fill-rule="evenodd" clip-rule="evenodd" d="M48.3328 53.2087C48.0684 53.2087 47.8004 53.139 47.5573 52.9919C46.8486 52.5628 46.6221 51.6404 47.051 50.9319L66.3729 19.0206C66.802 18.3122 67.724 18.0854 68.4331 18.5144C69.1415 18.9433 69.3683 19.8659 68.9393 20.5746L49.6175 52.4855C49.3354 52.9514 48.8404 53.2087 48.3328 53.2087Z" fill="#FCDC54"/>
<path fill-rule="evenodd" clip-rule="evenodd" d="M62.327 53.2087C62.0623 53.2087 61.7941 53.139 61.5514 52.9919C60.8428 52.5628 60.6162 51.6404 61.0452 50.9319L80.3672 19.0206C80.7962 18.3122 81.7188 18.0854 82.4272 18.5144C83.1359 18.9433 83.3624 19.8659 82.9335 20.5746L63.6117 52.4857C63.3297 52.9514 62.8343 53.2087 62.327 53.2087Z" fill="#FCDC54"/>
<path fill-rule="evenodd" clip-rule="evenodd" d="M76.3189 53.2086C76.0545 53.2086 75.7863 53.1388 75.5436 52.9918C74.8349 52.5626 74.6084 51.6402 75.0374 50.9318L90.2905 25.7404C90.7195 25.0317 91.6423 24.8052 92.3506 25.2341C93.0592 25.6633 93.2858 26.5857 92.8568 27.2944L77.6036 52.4855C77.3217 52.9512 76.8263 53.2086 76.3189 53.2086Z" fill="#FCDC54"/>
</svg>
