<svg width="35" height="35" viewBox="0 0 35 35" fill="none" xmlns="http://www.w3.org/2000/svg">
<path d="M9.78598 14.7869H13.0888V25.4123H9.78598V14.7869ZM11.4383 9.50488C12.4941 9.50488 13.3516 10.363 13.3516 11.4207C13.3516 12.4777 12.4935 13.334 11.4383 13.334C10.38 13.334 9.52441 12.4777 9.52441 11.4207C9.52441 10.363 10.3794 9.50488 11.4383 9.50488Z" fill="white"/>
<path d="M15.1606 14.7869H18.3286V16.2404H18.3735C18.8143 15.4044 19.8916 14.5247 21.4984 14.5247C24.8424 14.5247 25.4599 16.7249 25.4599 19.585V25.4129H22.159V20.2456C22.159 19.0131 22.1374 17.4272 20.442 17.4272C18.7238 17.4272 18.4616 18.7712 18.4616 20.1569V25.4123H15.1606V14.7869Z" fill="white"/>
</svg>
