<svg width="35" height="35" viewBox="0 0 35 35" fill="none" xmlns="http://www.w3.org/2000/svg">
<path d="M21.0946 14.8045C19.3783 14.8945 17.8849 15.4144 16.6727 16.5905C15.4478 17.778 14.8892 19.2341 15.0419 21.0384C14.3705 20.9555 13.7594 20.8636 13.145 20.8123C12.9329 20.7946 12.6808 20.8199 12.5009 20.9213C11.9043 21.2582 11.3318 21.6382 10.6535 22.0625C10.7776 21.4995 10.8587 21.0068 11.0012 20.5324C11.1057 20.1841 11.0569 19.9903 10.7365 19.7629C8.67559 18.3081 7.80666 16.1301 8.45646 13.8881C9.05813 11.8139 10.5351 10.5561 12.5421 9.90063C15.2819 9.00573 18.3605 9.91836 20.0262 12.0939C20.6279 12.8798 20.9965 13.7614 21.0946 14.8045ZM13.1925 14.106C13.2084 13.6962 12.8531 13.327 12.4313 13.3143C11.9987 13.3016 11.6434 13.6316 11.6307 14.0572C11.6181 14.4885 11.948 14.8349 12.3831 14.8457C12.8151 14.8565 13.1767 14.5265 13.1925 14.106ZM17.3155 13.3137C16.8918 13.3213 16.534 13.6823 16.5416 14.0939C16.5492 14.5208 16.9001 14.8546 17.3358 14.8495C17.7722 14.8444 18.1034 14.5062 18.0996 14.0711C18.0958 13.643 17.7468 13.3054 17.3155 13.3137Z" fill="white"/>
<path d="M24.9519 25.5086C24.4085 25.2667 23.9094 24.9031 23.3787 24.848C22.8499 24.7923 22.2938 25.0975 21.7403 25.1539C20.055 25.3262 18.5451 24.8569 17.2993 23.7055C14.9313 21.5148 15.2695 18.1562 18.0093 16.3613C20.4445 14.7653 24.0152 15.298 25.7322 17.5108C27.2306 19.4425 27.0546 22.0069 25.2255 23.6295C24.6967 24.0994 24.506 24.4857 24.8455 25.1045C24.9088 25.2191 24.9158 25.3642 24.9519 25.5086ZM18.7636 19.5166C19.11 19.5172 19.395 19.2462 19.4077 18.9042C19.4216 18.5425 19.1303 18.2385 18.768 18.2373C18.4096 18.2354 18.1087 18.5432 18.1214 18.8997C18.1334 19.2405 18.4203 19.516 18.7636 19.5166ZM22.753 18.2385C22.4173 18.236 22.1323 18.5115 22.1184 18.8503C22.1038 19.2132 22.3856 19.5115 22.7447 19.5122C23.0924 19.5134 23.3667 19.2506 23.3793 18.9054C23.3926 18.5419 23.1102 18.2411 22.753 18.2385Z" fill="white"/>
</svg>
