<svg width="113" height="40" viewBox="0 0 161 57" fill="none" xmlns="http://www.w3.org/2000/svg">
    <g clip-path="url(#clip0_2729_18556)">
        <path
            d="M9.45 42.52C6.9437 42.52 4.54006 41.5244 2.76784 39.7522C0.995622 37.9799 0 35.5763 0 33.07L0 0H9.45V42.52Z"
            fill="white" />
        <path d="M22.05 37.8V0H12.6V42.52H47.24V37.8H22.05Z" fill="white" />
        <path
            d="M63.62 20.1599V18.8999H56.69V20.1599H58.27V36.5299H56.69V37.7999H63.62V36.5299H62.05V20.1599H63.62Z"
            fill="white" />
        <path
            d="M91.65 20.1599H92.6V18.8999H89.13C88.6336 18.8999 88.1421 18.9977 87.6835 19.1876C87.2249 19.3776 86.8082 19.656 86.4572 20.007C86.1062 20.358 85.8277 20.7747 85.6378 21.2334C85.4478 21.692 85.35 22.1835 85.35 22.6799V24.2499H83.15V25.5099H85.35V37.7999H89.13V25.5099H92.13V24.2499H89.13V22.6799C89.13 22.0116 89.3955 21.3706 89.8681 20.898C90.3407 20.4254 90.9817 20.1599 91.65 20.1599Z"
            fill="white" />
        <path d="M128.03 24.8799H124.25V37.7899H128.03V24.8799Z" fill="white" />
        <path
            d="M71.79 25.0601L71.65 25.2001V23.6201H67.87V37.8001H71.65V28.7401C71.6503 27.6769 72.05 26.6525 72.77 25.8701C72.9645 25.6583 73.201 25.4893 73.4644 25.3739C73.7278 25.2586 74.0124 25.1994 74.3 25.2001C74.8499 25.2001 75.3775 25.4179 75.7673 25.8058C76.157 26.1937 76.3773 26.7202 76.38 27.2701V37.8001H80.16V28.5201C80.1574 27.2214 79.6402 25.9766 78.7219 25.0582C77.8035 24.1399 76.5587 23.6228 75.26 23.6201C73.9582 23.6211 72.71 24.1391 71.79 25.0601Z"
            fill="white" />
        <path
            d="M136.2 25.0601L136.06 25.2001V23.6201H132.28V37.8001H136.06V28.7401C136.06 27.6769 136.46 26.6525 137.18 25.8701C137.375 25.6583 137.611 25.4893 137.874 25.3739C138.138 25.2586 138.422 25.1994 138.71 25.2001C139.26 25.2001 139.788 25.4179 140.177 25.8058C140.567 26.1937 140.787 26.7202 140.79 27.2701V37.8001H144.57V28.5201C144.567 27.2214 144.05 25.9766 143.132 25.0582C142.214 24.1399 140.969 23.6228 139.67 23.6201C138.368 23.6211 137.12 24.1391 136.2 25.0601Z"
            fill="white" />
        <path
            d="M115.12 35.2799V18.8999H111.34V33.9999C111.34 34.4963 111.438 34.9878 111.628 35.4464C111.818 35.9051 112.096 36.3218 112.447 36.6728C112.798 37.0238 113.215 37.3022 113.673 37.4922C114.132 37.6821 114.624 37.7799 115.12 37.7799H122.05V36.5399H116.38C116.046 36.5399 115.725 36.4072 115.489 36.1709C115.253 35.9346 115.12 35.6141 115.12 35.2799Z"
            fill="white" />
        <path
            d="M100.71 23.6201C96.93 23.6201 93.86 25.9501 93.86 30.7101C93.86 35.4701 96.93 37.8001 100.71 37.8001C104.49 37.8001 107.56 35.4601 107.56 30.7101C107.56 25.9601 104.49 23.6201 100.71 23.6201ZM100.71 36.5401C99.01 36.5401 97.64 34.6201 97.64 30.7101C97.64 26.8001 99.01 24.8801 100.71 24.8801C102.41 24.8801 103.78 26.7901 103.78 30.7101C103.78 34.6301 102.4 36.5401 100.71 36.5401Z"
            fill="white" />
        <path
            d="M155.12 29.2399L160.31 23.6199H158.27L153.75 28.4999L152.6 29.7499V18.8999H148.82V37.7999H152.6V31.9599L152.89 31.6399L156.85 37.7999H160.63L155.12 29.2399Z"
            fill="white" />
        <path d="M33.07 14.17H47.24L33.07 0V14.17Z" fill="#FFCD00" />
        <path d="M128.03 22.6799H124.25V18.8999L128.03 22.6799Z" fill="#FFCD00" />
        <path
            d="M58.23 56.3202C57.7541 56.0818 57.358 55.71 57.09 55.2502C56.82 54.7643 56.682 54.216 56.69 53.6602V50.2502C56.6819 49.6975 56.8199 49.1525 57.09 48.6702C57.3619 48.2185 57.7575 47.8541 58.23 47.6202C58.7516 47.3613 59.3277 47.231 59.91 47.2402C60.4879 47.2314 61.0598 47.3581 61.58 47.6102C62.0431 47.8307 62.4347 48.1773 62.71 48.6102C62.9845 49.0725 63.1231 49.6027 63.11 50.1402C63.1239 50.1755 63.1239 50.2149 63.11 50.2502H63.02L62.02 50.3102C61.93 50.3102 61.89 50.3102 61.89 50.1902C61.9003 49.9392 61.8585 49.6888 61.7673 49.4547C61.6761 49.2207 61.5374 49.008 61.36 48.8302C61.1705 48.6559 60.9483 48.521 60.7062 48.4335C60.4642 48.3459 60.2071 48.3074 59.95 48.3202C59.4282 48.2983 58.9186 48.4813 58.53 48.8302C58.35 49.0103 58.2098 49.2263 58.1186 49.464C58.0273 49.7017 57.9869 49.9559 58 50.2102V53.7102C57.9891 53.9613 58.0306 54.2118 58.1218 54.446C58.2131 54.6801 58.3521 54.8927 58.53 55.0702C58.917 55.4227 59.4268 55.6094 59.95 55.5902C60.2078 55.6017 60.4653 55.5616 60.7074 55.4723C60.9495 55.383 61.1713 55.2463 61.36 55.0702C61.5379 54.8927 61.6769 54.6801 61.7681 54.446C61.8594 54.2118 61.9009 53.9613 61.89 53.7102C61.89 53.6302 61.89 53.5902 62.02 53.5902H63.02C63.0374 53.5887 63.055 53.591 63.0715 53.597C63.0879 53.603 63.1029 53.6125 63.1153 53.6249C63.1277 53.6373 63.1372 53.6522 63.1432 53.6687C63.1492 53.6852 63.1515 53.7027 63.15 53.7202C63.1628 54.2608 63.0243 54.7942 62.75 55.2602C62.4739 55.6924 62.0825 56.0387 61.62 56.2602C61.1015 56.517 60.5284 56.644 59.95 56.6302C59.36 56.6681 58.7696 56.5617 58.23 56.3202Z"
            fill="white" />
        <path
            d="M66.25 56.3002C65.7663 56.0461 65.3668 55.657 65.1 55.1802C64.8207 54.6758 64.6793 54.1067 64.69 53.5302V50.3902C64.6796 49.8169 64.8211 49.2511 65.1 48.7502C65.3645 48.2741 65.7649 47.8877 66.25 47.6402C66.7798 47.3768 67.3634 47.2397 67.955 47.2397C68.5467 47.2397 69.1302 47.3768 69.66 47.6402C70.1411 47.8934 70.54 48.2784 70.81 48.7502C71.089 49.2511 71.2304 49.8169 71.22 50.3902V53.5302C71.2308 54.1067 71.0893 54.6758 70.81 55.1802C70.5355 55.6511 70.138 56.0382 69.66 56.3002C69.1283 56.557 68.5455 56.6904 67.955 56.6904C67.3646 56.6904 66.7817 56.557 66.25 56.3002ZM69.4 55.0502C69.5951 54.8591 69.7489 54.6301 69.8521 54.3773C69.9553 54.1245 70.0057 53.8532 70 53.5802V50.3802C70.0136 50.1091 69.9718 49.8381 69.8772 49.5836C69.7827 49.3292 69.6373 49.0966 69.45 48.9002C69.0528 48.5404 68.536 48.3412 68 48.3412C67.4641 48.3412 66.9473 48.5404 66.55 48.9002C66.3627 49.0966 66.2173 49.3292 66.1228 49.5836C66.0282 49.8381 65.9865 50.1091 66 50.3802V53.5802C65.9865 53.8489 66.0274 54.1177 66.1202 54.3702C66.2129 54.6228 66.3557 54.8541 66.54 55.0502C66.9403 55.4038 67.4559 55.599 67.99 55.599C68.5241 55.599 69.0398 55.4038 69.44 55.0502H69.4Z"
            fill="white" />
        <path
            d="M78.7 47.3498H79.7C79.79 47.3498 79.83 47.3498 79.83 47.4798V56.4798C79.83 56.5698 79.83 56.6098 79.7 56.6098H78.7C78.6683 56.6079 78.6374 56.5988 78.6097 56.5833C78.582 56.5677 78.5581 56.546 78.54 56.5198L74.42 49.7898V56.4698C74.42 56.5598 74.42 56.5998 74.29 56.5998H73.29C73.2 56.5998 73.16 56.5998 73.16 56.4698V47.4698C73.16 47.3798 73.16 47.3398 73.29 47.3398H74.29C74.3206 47.3409 74.3505 47.3497 74.3767 47.3654C74.4029 47.3811 74.4247 47.4033 74.44 47.4298L78.56 54.1698C78.5636 54.162 78.5655 54.1535 78.5655 54.1448C78.5655 54.1362 78.5636 54.1277 78.56 54.1198V47.4798C78.57 47.3898 78.61 47.3498 78.7 47.3498Z"
            fill="white" />
        <path
            d="M83.1 56.36C82.6584 56.1703 82.2777 55.8623 82 55.47C81.728 55.0695 81.5882 54.5939 81.6 54.11V53.73C81.6 53.64 81.6 53.6 81.73 53.6H82.73C82.82 53.6 82.86 53.6 82.86 53.73V54C82.8598 54.2181 82.9125 54.433 83.0135 54.6263C83.1145 54.8196 83.2608 54.9856 83.44 55.11C83.9116 55.4261 84.4731 55.5805 85.04 55.55C85.5282 55.5844 86.0131 55.4464 86.41 55.16C86.5585 55.04 86.6773 54.8873 86.757 54.7138C86.8368 54.5404 86.8755 54.3508 86.87 54.16C86.8749 53.9057 86.7899 53.6578 86.63 53.46C86.4355 53.2414 86.2014 53.0615 85.94 52.93C85.5072 52.7103 85.0633 52.5134 84.61 52.34C84.0602 52.1651 83.5224 51.9546 83 51.71C82.636 51.5135 82.3187 51.2406 82.07 50.91C81.816 50.5474 81.6862 50.1124 81.7 49.67C81.6842 49.3293 81.7504 48.9898 81.8931 48.6801C82.0358 48.3703 82.2508 48.0994 82.52 47.89C83.1539 47.4287 83.9271 47.1992 84.71 47.24C85.2969 47.2275 85.8798 47.34 86.42 47.57C86.8804 47.7657 87.2758 48.0882 87.56 48.5C87.8321 48.9041 87.9719 49.3829 87.96 49.87V50.13C87.96 50.22 87.96 50.26 87.83 50.26H86.83C86.8125 50.2615 86.795 50.2592 86.7785 50.2532C86.762 50.2472 86.7471 50.2377 86.7347 50.2253C86.7223 50.2129 86.7128 50.1979 86.7068 50.1815C86.7008 50.165 86.6985 50.1474 86.7 50.13V49.93C86.7017 49.7116 86.654 49.4956 86.5605 49.2982C86.467 49.1008 86.3301 48.9271 86.16 48.79C85.7246 48.4684 85.1904 48.3092 84.65 48.34C84.2024 48.3122 83.7575 48.4278 83.38 48.67C83.2277 48.786 83.1067 48.9383 83.0281 49.1129C82.9495 49.2875 82.9158 49.479 82.93 49.67C82.9199 49.9265 83.0014 50.1782 83.16 50.38C83.3427 50.5909 83.5675 50.7612 83.82 50.88C84.12 51.02 84.57 51.21 85.17 51.44C85.6907 51.6339 86.1984 51.8611 86.69 52.12C87.0815 52.309 87.4238 52.5863 87.69 52.93C87.9241 53.2955 88.0329 53.7272 88 54.16C88.0201 54.5089 87.9571 54.8576 87.8163 55.1774C87.6755 55.4973 87.4609 55.7792 87.19 56C86.5113 56.4887 85.685 56.7289 84.85 56.68C84.251 56.6925 83.6558 56.5836 83.1 56.36Z"
            fill="white" />
        <path
            d="M91.21 56.3001C90.7368 56.0625 90.3413 55.6948 90.07 55.2401C89.792 54.757 89.6503 54.2074 89.66 53.6501V47.4801C89.66 47.3901 89.66 47.3501 89.8 47.3501H90.8C90.89 47.3501 90.93 47.3501 90.93 47.4801V53.6701C90.9181 53.9275 90.9609 54.1845 91.0557 54.4242C91.1505 54.6638 91.2952 54.8806 91.48 55.0601C91.876 55.4021 92.3818 55.5903 92.905 55.5903C93.4282 55.5903 93.934 55.4021 94.33 55.0601C94.5115 54.8786 94.6533 54.6612 94.7463 54.4219C94.8392 54.1826 94.8814 53.9266 94.87 53.6701V47.4801C94.87 47.3901 94.87 47.3501 95 47.3501H96C96.09 47.3501 96.13 47.3501 96.13 47.4801V53.6501C96.1428 54.2065 96.0046 54.756 95.73 55.2401C95.4655 55.6966 95.0725 56.0652 94.6 56.3001C94.0694 56.5483 93.4908 56.677 92.905 56.677C92.3192 56.677 91.7406 56.5483 91.21 56.3001Z"
            fill="white" />
        <path
            d="M98.2 56.44V47.44C98.2 47.35 98.2 47.31 98.34 47.31H99.34C99.3575 47.3085 99.3751 47.3108 99.3915 47.3168C99.408 47.3228 99.4229 47.3323 99.4353 47.3447C99.4477 47.3571 99.4572 47.3721 99.4632 47.3885C99.4692 47.405 99.4715 47.4226 99.47 47.44V55.44H104.02C104.11 55.44 104.15 55.44 104.15 55.57V56.4C104.15 56.49 104.15 56.53 104.02 56.53H98.34C98.25 56.57 98.2 56.53 98.2 56.44Z"
            fill="white" />
        <path
            d="M110.55 47.4802V48.3202C110.55 48.4102 110.55 48.4602 110.42 48.4602H107.89V56.3902C107.891 56.4077 107.889 56.4252 107.883 56.4417C107.877 56.4582 107.868 56.4731 107.855 56.4855C107.843 56.4979 107.828 56.5074 107.811 56.5134C107.795 56.5194 107.777 56.5217 107.76 56.5202H106.76C106.743 56.5217 106.725 56.5194 106.708 56.5134C106.692 56.5074 106.677 56.4979 106.665 56.4855C106.652 56.4731 106.643 56.4582 106.637 56.4417C106.631 56.4252 106.628 56.4077 106.63 56.3902V48.5102H104.22C104.13 48.5102 104.09 48.4602 104.09 48.3702V47.5302C104.09 47.4402 104.09 47.4002 104.22 47.4002H110.53C110.51 47.3502 110.55 47.3902 110.55 47.4802Z"
            fill="white" />
        <path
            d="M112.12 56.4401V47.4401C112.12 47.3501 112.12 47.3101 112.25 47.3101H113.25C113.34 47.3101 113.38 47.3101 113.38 47.4401V56.4401C113.38 56.5301 113.38 56.5701 113.25 56.5701H112.25C112.16 56.5701 112.12 56.5301 112.12 56.4401Z"
            fill="white" />
        <path
            d="M121.11 47.3498H122.11C122.2 47.3498 122.24 47.3498 122.24 47.4798V56.4798C122.24 56.5698 122.24 56.6098 122.11 56.6098H121.11C121.078 56.6096 121.046 56.6012 121.018 56.5854C120.99 56.5697 120.967 56.5471 120.95 56.5198L116.82 49.7898V56.4698C116.82 56.5598 116.82 56.5998 116.69 56.5998H115.69C115.6 56.5998 115.56 56.5998 115.56 56.4698V47.4698C115.56 47.3798 115.56 47.3398 115.69 47.3398H116.69C116.722 47.3401 116.754 47.3485 116.782 47.3642C116.81 47.38 116.833 47.4025 116.85 47.4298L120.96 54.1698V54.1198V47.4798C121 47.3898 121 47.3498 121.11 47.3498Z"
            fill="white" />
        <path
            d="M125.7 56.3002C125.225 56.0683 124.832 55.699 124.57 55.2402C124.292 54.7571 124.15 54.2075 124.16 53.6502V50.2802C124.149 49.7196 124.291 49.1666 124.57 48.6802C124.832 48.2214 125.225 47.852 125.7 47.6202C126.222 47.3613 126.798 47.231 127.38 47.2402C127.958 47.2314 128.53 47.3581 129.05 47.6102C129.511 47.8338 129.902 48.1797 130.18 48.6102C130.449 49.0528 130.588 49.5623 130.58 50.0802V50.2302C130.58 50.3202 130.58 50.3602 130.45 50.3602H129.45C129.36 50.3602 129.32 50.3602 129.32 50.2302V50.1102C129.33 49.8702 129.287 49.6311 129.193 49.4098C129.1 49.1885 128.959 48.9906 128.78 48.8302C128.395 48.4898 127.894 48.3108 127.38 48.3302C127.121 48.3174 126.861 48.3568 126.617 48.4461C126.373 48.5355 126.15 48.6729 125.96 48.8502C125.781 49.0288 125.641 49.243 125.55 49.479C125.458 49.715 125.418 49.9675 125.43 50.2202V53.6702C125.418 53.9247 125.46 54.1788 125.555 54.4153C125.65 54.6517 125.795 54.8649 125.98 55.0402C126.38 55.39 126.899 55.5726 127.43 55.5502C127.93 55.5783 128.423 55.4177 128.81 55.1002C128.981 54.9416 129.115 54.7475 129.203 54.5316C129.291 54.3157 129.331 54.0831 129.32 53.8502V52.8502C129.32 52.8502 129.32 52.8502 129.26 52.8502H127.49C127.471 52.8517 127.452 52.8491 127.435 52.8426C127.417 52.8361 127.401 52.8259 127.388 52.8125C127.374 52.7992 127.364 52.7832 127.358 52.7655C127.351 52.7478 127.348 52.729 127.35 52.7102V51.9002C127.348 51.8814 127.351 51.8626 127.358 51.8449C127.364 51.8272 127.374 51.8112 127.388 51.7979C127.401 51.7845 127.417 51.7743 127.435 51.7678C127.452 51.7613 127.471 51.7587 127.49 51.7602H130.49C130.58 51.7602 130.62 51.8102 130.62 51.9002V53.5702C130.647 53.9971 130.585 54.425 130.437 54.8264C130.289 55.2277 130.058 55.5935 129.76 55.9002C129.118 56.4711 128.278 56.7657 127.42 56.7202C126.821 56.7235 126.23 56.5792 125.7 56.3002Z"
            fill="white" />
    </g>
    <defs>
        <clipPath id="clip0_2729_18556">
            <rect width="160.63" height="56.69" fill="white" />
        </clipPath>
    </defs>
</svg>