<svg width="32" height="32" viewBox="0 0 32 32" fill="none" xmlns="http://www.w3.org/2000/svg">
<path d="M9.02466 28H7.81836V4H9.02466V28Z" fill="#D1D8DE"/>
<path d="M22.1155 28H8.70215V4H25.6804V24.4441L22.1155 28Z" fill="#EFF2F4"/>
<path d="M6.66699 13.5782V6.56543L7.81928 7.69971V14.7215L6.66699 13.5782Z" fill="#B73737"/>
<path d="M22.1152 24.4441H25.6801L22.1152 28V24.4441Z" fill="#CFD8DF"/>
<path d="M6.66699 13.5782V6.56543H19.3152V13.5782H6.66699Z" fill="#EE4937"/>
<path d="M15.9829 21.3653C16.199 20.9332 16.451 20.4561 16.6491 19.97L16.7301 19.7809C16.469 18.7907 16.316 17.9985 16.451 17.4944C16.487 17.3593 16.6401 17.2783 16.8111 17.2783H16.9101H16.9281C17.1532 17.2783 17.2612 17.5664 17.2702 17.6744C17.2882 17.8635 17.2072 18.1785 17.2072 18.1785C17.2072 18.0525 17.2162 17.8455 17.1352 17.6654C17.0452 17.4584 16.9551 17.3413 16.8741 17.3143C16.8381 17.3413 16.7931 17.3953 16.7841 17.5034C16.7571 17.6564 16.7481 17.8455 16.7481 17.9445C16.7481 18.2956 16.8201 18.7457 16.9461 19.2228C16.9732 19.1508 16.9912 19.0788 17.0092 19.0158C17.0362 18.9077 17.2072 18.2236 17.2072 18.2236C17.2072 18.2236 17.1622 19.1418 17.0992 19.4119C17.0902 19.4659 17.0722 19.5289 17.0542 19.5919C17.2792 20.2131 17.6303 20.7622 18.0534 21.1583C18.2245 21.3113 18.4315 21.4374 18.6296 21.5544C19.0707 21.4914 19.4668 21.4644 19.8089 21.4644C20.259 21.4734 20.5831 21.5364 20.7181 21.6714C20.7811 21.7344 20.8081 21.8155 20.8171 21.8965C20.8171 21.9325 20.7991 22.0045 20.7991 22.0315C20.8081 22.0045 20.8081 21.8875 20.448 21.7794C20.169 21.6894 19.6378 21.6894 19.0077 21.7614C19.7368 22.1215 20.457 22.3016 20.6821 22.1935C20.7361 22.1665 20.8081 22.0765 20.8081 22.0765C20.8081 22.0765 20.7721 22.2566 20.7361 22.3016C20.7001 22.3466 20.6281 22.4006 20.556 22.4186C20.196 22.5176 19.2687 22.2926 18.4585 21.8335C17.5493 21.9685 16.559 22.2116 15.7578 22.4726C14.9747 23.85 14.3895 24.4801 13.9034 24.2371L13.7233 24.147C13.6513 24.102 13.6423 24.003 13.6603 23.922C13.7143 23.6519 14.0564 23.2378 14.7496 22.8237C14.8216 22.7787 15.1547 22.6077 15.1547 22.6077C15.1547 22.6077 14.9116 22.8417 14.8486 22.8867C14.2995 23.3368 13.8944 23.904 13.9034 24.12V24.138C14.3715 24.075 15.0737 23.1208 15.9739 21.3563L15.9829 21.3653ZM16.271 21.5094C16.1179 21.7884 15.9739 22.0585 15.8389 22.2926C16.5861 21.9775 17.3963 21.7794 18.1614 21.6354C18.0624 21.5634 17.9544 21.4914 17.8644 21.4104C17.4413 21.0503 17.1172 20.6002 16.8831 20.132C16.7391 20.5281 16.559 20.9602 16.271 21.5094Z" fill="#EE4937"/>
<path d="M9.03516 8.4292H10.2145C10.5205 8.4292 10.7636 8.51922 10.9526 8.70827C11.1417 8.89732 11.2317 9.13137 11.2317 9.42845C11.2317 9.72552 11.1417 9.96858 10.9526 10.1486C10.7636 10.3287 10.5205 10.4187 10.2145 10.4187H9.51228V11.562H9.04416V8.4292H9.03516ZM9.50327 8.8343V10.0226H9.94438C10.0794 10.0226 10.1874 10.0136 10.2865 9.99559C10.3765 9.97759 10.4575 9.95058 10.5385 9.90557C10.6106 9.86056 10.6646 9.79754 10.7006 9.72552C10.7366 9.6445 10.7546 9.54548 10.7546 9.42845C10.7546 9.2394 10.7006 9.09537 10.6015 8.98734C10.5025 8.87931 10.3495 8.8343 10.1604 8.8343H9.51228H9.50327Z" fill="#F1F2F2"/>
<path d="M11.7002 8.4292H12.7445C12.9425 8.4292 13.1226 8.45621 13.2756 8.50122C13.4286 8.55523 13.5637 8.61825 13.6717 8.70827C13.7797 8.79829 13.8607 8.90632 13.9328 9.04135C14.0048 9.17639 14.0498 9.32042 14.0858 9.47346C14.1128 9.6265 14.1308 9.79754 14.1308 9.98659C14.1308 10.1756 14.1128 10.3377 14.0858 10.4997C14.0588 10.6528 14.0048 10.7968 13.9418 10.9318C13.8697 11.0669 13.7887 11.1749 13.6807 11.2649C13.5727 11.3549 13.4466 11.4269 13.2846 11.481C13.1316 11.535 12.9515 11.562 12.7445 11.562H11.7002V8.4292ZM12.1683 8.8343V11.1569H12.6994C13.0145 11.1569 13.2486 11.0579 13.4016 10.8688C13.5547 10.6798 13.6357 10.3917 13.6357 9.99559C13.6357 9.81555 13.6177 9.65351 13.5817 9.51847C13.5457 9.38344 13.4916 9.25741 13.4196 9.14938C13.3476 9.04135 13.2486 8.96933 13.1316 8.91532C13.0055 8.86131 12.8615 8.8343 12.6904 8.8343H12.1593H12.1683Z" fill="#F1F2F2"/>
<path d="M15.1646 11.562H14.6875V8.4292H16.587V8.8343H15.1646V9.84255H16.4699V10.2477H15.1646V11.562Z" fill="#F1F2F2"/>
</svg>
