<svg width="32" height="32" viewBox="0 0 32 32" fill="none" xmlns="http://www.w3.org/2000/svg">
<path d="M15.8672 8.40576H25.9616V23.328H15.8672V8.40576Z" fill="white"/>
<path d="M25.9618 23.7665H17.184C16.9414 23.7665 16.7451 23.5702 16.7451 23.3277C16.7451 23.0851 16.9414 22.8888 17.184 22.8888H25.5229V8.84433H17.184C16.9414 8.84433 16.7451 8.64803 16.7451 8.40544C16.7451 8.16285 16.9414 7.96655 17.184 7.96655H25.9618C26.2044 7.96655 26.4007 8.16285 26.4007 8.40544V23.3277C26.4007 23.5702 26.2044 23.7665 25.9618 23.7665Z" fill="#177848"/>
<path d="M17.6219 5.33325L5.33301 7.62311V24.1101L17.6219 26.3999V5.33325Z" fill="#177848"/>
<path opacity="0.2" d="M5.33301 7.62311V7.84256L17.6219 5.5527V5.33325L5.33301 7.62311Z" fill="white"/>
<path d="M16.7422 9.72168H20.2533V11.4772H16.7422V9.72168Z" fill="#177848"/>
<path d="M21.1309 9.72168H24.642V11.4772H21.1309V9.72168Z" fill="#177848"/>
<path d="M16.7422 12.355H20.2533V14.1105H16.7422V12.355Z" fill="#177848"/>
<path d="M21.1309 12.355H24.642V14.1105H21.1309V12.355Z" fill="#177848"/>
<path d="M16.7422 14.9883H20.2533V16.7438H16.7422V14.9883Z" fill="#177848"/>
<path d="M21.1309 14.9883H24.642V16.7438H21.1309V14.9883Z" fill="#177848"/>
<path d="M16.7422 17.6218H20.2533V19.3774H16.7422V17.6218Z" fill="#177848"/>
<path d="M21.1309 17.6218H24.642V19.3774H21.1309V17.6218Z" fill="#177848"/>
<path d="M16.7422 20.2551H20.2533V22.0107H16.7422V20.2551Z" fill="#177848"/>
<path d="M21.1309 20.2551H24.642V22.0107H21.1309V20.2551Z" fill="#177848"/>
<g opacity="0.1">
<mask id="path-15-inside-1_2951_5397" fill="white">
<path d="M5.33301 24.1101L17.6219 26.3999V26.1805L5.33301 23.8906V24.1101Z"/>
</mask>
<path d="M5.33301 24.1101L17.6219 26.3999V26.1805L5.33301 23.8906V24.1101Z" fill="black"/>
<path d="M5.33301 24.1101H4.33301V24.9409L5.14982 25.0931L5.33301 24.1101ZM17.6219 26.3999L17.4387 27.383L18.6219 27.6035V26.3999H17.6219ZM17.6219 26.1805H18.6219V25.3496L17.8051 25.1974L17.6219 26.1805ZM5.33301 23.8906L5.51619 22.9075L4.33301 22.6871V23.8906H5.33301ZM5.14982 25.0931L17.4387 27.383L17.8051 25.4169L5.51619 23.127L5.14982 25.0931ZM18.6219 26.3999V26.1805H16.6219V26.3999H18.6219ZM17.8051 25.1974L5.51619 22.9075L5.14982 24.8737L17.4387 27.1636L17.8051 25.1974ZM4.33301 23.8906V24.1101H6.33301V23.8906H4.33301Z" fill="black" mask="url(#path-15-inside-1_2951_5397)"/>
</g>
<path d="M25.96 23.7665C26.2026 23.7665 26.3989 23.5702 26.3989 23.3277V16.7443L17.6211 7.96655V23.7665H25.96Z" fill="url(#paint0_linear_2951_5397)"/>
<path d="M11.7932 16.3055L13.81 12.6753L13.7846 12.6611L12.2514 12.7706L11.0404 14.9505L9.92177 12.937L8.47363 13.0404L10.2875 16.3055L8.47363 19.5706L9.92177 19.674L11.0404 17.6606L12.2514 19.8404L13.7846 19.9499L13.81 19.9358L11.7932 16.3055Z" fill="white"/>
<path opacity="0.05" d="M17.6219 5.33325L5.33301 7.62311V24.1101L17.6219 26.3999V5.33325Z" fill="url(#paint1_linear_2951_5397)"/>
<path d="M25.9608 7.96658H17.6219V5.33325L5.33301 7.62311V24.1101L17.6219 26.3999V23.7666H25.9608C26.2034 23.7666 26.3997 23.5703 26.3997 23.3277V8.40547C26.3997 8.16288 26.2034 7.96658 25.9608 7.96658Z" fill="url(#paint2_linear_2951_5397)"/>
<defs>
<linearGradient id="paint0_linear_2951_5397" x1="13.6711" y1="11.9166" x2="25.8318" y2="24.0773" gradientUnits="userSpaceOnUse">
<stop stop-opacity="0.1"/>
<stop offset="1" stop-opacity="0"/>
</linearGradient>
<linearGradient id="paint1_linear_2951_5397" x1="5.21667" y1="16.0282" x2="17.527" y2="16.0282" gradientUnits="userSpaceOnUse">
<stop stop-color="white"/>
<stop offset="1"/>
</linearGradient>
<linearGradient id="paint2_linear_2951_5397" x1="3.96104" y1="10.5666" x2="27.3169" y2="21.4571" gradientUnits="userSpaceOnUse">
<stop stop-color="white" stop-opacity="0.2"/>
<stop offset="1" stop-color="white" stop-opacity="0"/>
</linearGradient>
</defs>
</svg>
