<svg width="32" height="32" viewBox="0 0 32 32" fill="none" xmlns="http://www.w3.org/2000/svg">
<path d="M9.02466 28H7.81836V4H9.02466V28Z" fill="#D1D8DE"/>
<path d="M22.1155 28H8.70215V4H25.6804V24.4441L22.1155 28Z" fill="#EFF2F4"/>
<path d="M6.66699 13.5782V6.56543L7.81928 7.69971V14.7215L6.66699 13.5782Z" fill="#00662C"/>
<path d="M22.1152 24.4441H25.6801L22.1152 28V24.4441Z" fill="#D1D8DE"/>
<path d="M6.66699 13.5782V6.56543H19.3152V13.5782H6.66699Z" fill="#007934"/>
<path d="M8.97168 11.643L9.96193 10.0406L8.97168 8.50119H9.71887L10.358 9.59946L10.9972 8.50119H11.7534L10.7631 10.0406L11.7534 11.652H11.0062L10.367 10.5627L9.72787 11.652H8.98068L8.97168 11.643ZM12.0595 11.643V8.49218H12.7076V11.0578H14.247V11.643H12.0595ZM14.4541 10.6707H15.0932C15.1202 10.8418 15.1922 10.9678 15.3003 11.0578C15.4173 11.1388 15.5883 11.1839 15.8044 11.1839C15.9934 11.1839 16.1375 11.1478 16.2275 11.0848C16.3265 11.0218 16.3715 10.9228 16.3715 10.7878C16.3715 10.5987 16.1015 10.4367 15.5523 10.3106H15.5343C15.5163 10.3106 15.4983 10.3016 15.4713 10.2926C15.1742 10.2296 14.9672 10.1576 14.8411 10.0766C14.7331 10.0046 14.6431 9.90554 14.5891 9.78851C14.5351 9.67148 14.4991 9.52744 14.4991 9.3654C14.4991 9.05933 14.6071 8.82527 14.8141 8.66323C15.0212 8.50119 15.3183 8.42017 15.7144 8.42017C16.0835 8.42017 16.3715 8.51019 16.5786 8.68123C16.7856 8.85227 16.8937 9.10434 16.9027 9.41942H16.2815C16.2725 9.26638 16.2095 9.14935 16.1105 9.06833C16.0024 8.98731 15.8584 8.9513 15.6604 8.9513C15.4893 8.9513 15.3633 8.98731 15.2643 9.05032C15.1742 9.11334 15.1292 9.21236 15.1292 9.32939C15.1292 9.50044 15.3093 9.61747 15.6694 9.70749C15.7684 9.73449 15.8404 9.7435 15.8944 9.7615C16.1195 9.81552 16.2905 9.86953 16.3805 9.89654C16.4796 9.93254 16.5606 9.96855 16.6326 10.0046C16.7586 10.0766 16.8577 10.1666 16.9207 10.2836C16.9837 10.4007 17.0197 10.5447 17.0197 10.7067C17.0197 11.0308 16.9117 11.2919 16.6866 11.4719C16.4616 11.652 16.1555 11.742 15.7504 11.742C15.3543 11.742 15.0392 11.652 14.8231 11.4629C14.5981 11.2829 14.4811 11.0218 14.4631 10.6797L14.4541 10.6707Z" fill="white"/>
<path fill-rule="evenodd" clip-rule="evenodd" d="M13.6709 17.2693H20.8277V24.282H13.6709V17.2693Z" fill="#007934"/>
<path fill-rule="evenodd" clip-rule="evenodd" d="M14.2666 17.8723V23.6788H20.2261V17.8723H14.2666Z" fill="white"/>
<path fill-rule="evenodd" clip-rule="evenodd" d="M19.5764 21.6985H17.7939L18.3161 22.3557L17.7939 23.0128H19.5764L19.0543 22.3557L19.5764 21.6985Z" fill="#01692E"/>
<path fill-rule="evenodd" clip-rule="evenodd" d="M19.1448 19.3848H17.4344L17.0563 19.8619L16.6782 19.3848H14.9678L16.2011 20.9242L14.9678 22.4635H19.1448L17.9115 20.9242L19.1448 19.3848ZM15.697 19.6008H15.4449L17.5694 22.2475H17.8215L15.697 19.6008Z" fill="#007934"/>
</svg>
